<svg width="75" height="75" viewBox="0 0 75 75" fill="none" xmlns="http://www.w3.org/2000/svg">
<circle r="37.5" transform="matrix(-1 0 0 1 37.5 37.5)" fill="#0E927D"/>
<path d="M15.3109 53.0029C19.4056 41.9345 23.5615 30.8889 27.7127 19.8388C28.3152 18.2452 29.4589 17.469 31.3038 17.5009C35.455 17.574 39.6109 17.5603 43.7621 17.5055C45.5977 17.4827 46.6755 18.2909 47.2826 19.9164C51.3962 30.8935 55.5474 41.8523 59.6374 52.8385C60.701 55.6924 59.3832 57.4275 56.2298 57.464C52.5446 57.5097 48.864 57.4732 45.1788 57.4732C44.0727 57.4732 42.9385 57.5234 42.3501 56.3271C41.7995 55.222 42.5431 54.4549 43.1126 53.6467C45.2776 50.5828 46.586 47.2221 46.9296 43.5053C47.0802 41.8477 46.346 41.0669 44.6752 41.0624C42.3266 41.0532 39.9733 41.0624 37.6247 41.0624C37.6247 41.0578 37.6247 41.0532 37.6247 41.0532C35.3515 41.0532 33.0782 41.0213 30.8096 41.0624C28.3669 41.1035 27.7551 41.8066 28.1128 44.1902C28.6399 47.7016 29.9672 50.9116 32.0286 53.8522C33.5065 55.9663 32.8005 57.4138 30.2401 57.4503C26.3243 57.5143 22.4037 57.5234 18.4878 57.4366C15.6545 57.3727 14.3555 55.5828 15.3109 53.0029ZM34.7867 30.6104C35.9068 31.9072 36.8011 33.2314 37.2012 34.93C37.573 36.5145 38.6084 36.551 39.7615 35.4825C41.7665 33.6149 42.0019 30.1629 40.1475 27.784C39.1073 26.4506 38.1378 25.1858 37.7895 23.4461C37.5071 22.0534 36.3916 21.921 35.3515 22.9438C34.2078 24.058 33.5771 25.4141 33.6006 27.1493C33.5018 28.3684 33.916 29.6104 34.7867 30.6104Z" fill="#F3E4E1"/>
</svg>
