<svg width="113" height="304" viewBox="0 0 113 304" fill="none" xmlns="http://www.w3.org/2000/svg">
<g filter="url(#filter0_d)">
<path d="M6.49754 172.779C6.43597 172.189 6.89881 171.675 7.49214 171.675H92.9205C93.5139 171.675 93.9767 172.189 93.9151 172.779L81.779 289.104C81.7259 289.613 81.2965 290 80.7844 290H19.6283C19.1161 290 18.6868 289.613 18.6337 289.104L6.49754 172.779Z" fill="#E1E1E1"/>
<path d="M10.4262 161.18C9.76316 161.799 10.2015 162.911 11.1089 162.911H89.3039C90.2112 162.911 90.6496 161.799 89.9865 161.18L80.3998 152.224C80.2146 152.051 79.9706 151.955 79.7172 151.955H20.6956C20.4421 151.955 20.1981 152.051 20.0129 152.224L10.4262 161.18Z" fill="white"/>
<path d="M2.20651 174.884C2.09876 175.497 2.56976 176.058 3.19137 176.058H97.1509C97.7955 176.058 98.2717 175.457 98.1244 174.829L96.0227 165.873C95.9167 165.421 95.5135 165.102 95.0492 165.102H4.76763C4.28221 165.102 3.8669 165.45 3.78276 165.928L2.20651 174.884Z" fill="white"/>
<rect x="6.38239" y="160.719" width="87.6479" height="6.57359" rx="1" fill="white"/>
<circle r="27.4921" transform="matrix(-1 0 0 1 49.38 220.392)" fill="#0E927D"/>
<path d="M33.1127 231.758C36.1146 223.643 39.1614 215.546 42.2047 207.445C42.6464 206.276 43.4849 205.707 44.8375 205.731C47.8808 205.784 50.9276 205.774 53.9709 205.734C55.3166 205.717 56.1068 206.31 56.5519 207.501C59.5676 215.549 62.6109 223.583 65.6094 231.637C66.3892 233.73 65.4231 235.002 63.1113 235.028C60.4095 235.062 57.7112 235.035 55.0095 235.035C54.1986 235.035 53.3671 235.072 52.9358 234.195C52.5321 233.385 53.0772 232.822 53.4947 232.23C55.082 229.984 56.0412 227.52 56.2931 224.795C56.4035 223.58 55.8652 223.007 54.6403 223.004C52.9185 222.997 51.1933 223.004 49.4715 223.004C49.4715 223.001 49.4715 222.997 49.4715 222.997C47.8049 222.997 46.1383 222.974 44.4752 223.004C42.6843 223.034 42.2358 223.55 42.498 225.297C42.8845 227.871 43.8575 230.225 45.3688 232.381C46.4523 233.93 45.9347 234.992 44.0576 235.018C41.1868 235.065 38.3126 235.072 35.4418 235.008C33.3646 234.961 32.4122 233.649 33.1127 231.758ZM47.3908 215.341C48.212 216.292 48.8676 217.263 49.1609 218.508C49.4335 219.67 50.1926 219.697 51.038 218.913C52.5079 217.544 52.6804 215.013 51.3209 213.269C50.5584 212.292 49.8476 211.365 49.5922 210.089C49.3852 209.068 48.5674 208.971 47.8049 209.721C46.9664 210.538 46.504 211.532 46.5213 212.804C46.4488 213.698 46.7525 214.608 47.3908 215.341Z" fill="#F3E4E1"/>
</g>
<path d="M37.5687 42.3587C37.5687 42.3587 36.5071 51.1223 44.8837 59.0837C44.8837 59.0837 46.4686 59.6549 47.0118 57.1772C47.0118 57.1772 35.9915 47.4461 42.6758 37.7833L37.5687 42.3587Z" fill="black"/>
<path d="M48.9715 32.1431C48.9715 32.1431 57.7987 32.0476 64.7949 41.2456C64.7949 41.2456 65.1891 42.8836 62.6668 43.1522C62.6668 43.1522 54.2011 31.1326 43.8644 36.7184L48.9715 32.1431Z" fill="black"/>
<path d="M40.3555 26.5506L32.3621 33.7117C30.4336 35.4394 30.2686 38.401 31.9937 40.3266L33.1676 41.6369C34.8927 43.5625 37.8546 43.7229 39.7831 41.9952L47.7765 34.8341C49.705 33.1063 49.87 30.1447 48.1449 28.2191L46.971 26.9088C45.2459 24.9832 42.284 24.8228 40.3555 26.5506Z" fill="black"/>
<path d="M37.0602 41.0492L25.082 51.1906C24.6145 51.5863 24.0115 51.7844 23.4009 51.7429C22.7903 51.7015 22.2203 51.4237 21.8119 50.9685L21.4157 50.5262C21.012 50.0755 20.798 49.4862 20.8182 48.881C20.8384 48.2758 21.0913 47.7014 21.5242 47.2773L32.7413 36.2864C32.9684 36.0639 33.2381 35.8896 33.5343 35.7741C33.8304 35.6586 34.1468 35.6043 34.4643 35.6143C34.7818 35.6244 35.0939 35.6987 35.3818 35.8327C35.6696 35.9667 35.9273 36.1577 36.1391 36.3941L37.3019 37.692C37.51 37.9263 37.6691 38.1999 37.7698 38.4968C37.8705 38.7936 37.9107 39.1076 37.8882 39.4205C37.8657 39.7333 37.7808 40.0385 37.6386 40.3182C37.4964 40.5979 37.2997 40.8465 37.0602 41.0492V41.0492Z" fill="black"/>
<path d="M47.6411 31.57L59.0333 20.7745C59.4777 20.3531 59.7407 19.7754 59.7664 19.1639C59.792 18.5525 59.5783 17.9555 59.1706 17.4997L58.7744 17.0574C58.3706 16.6068 57.8083 16.3296 57.2045 16.2834C56.6007 16.2372 56.0021 16.4256 55.5331 16.8095L43.3799 26.7555C43.1339 26.9568 42.9311 27.2059 42.7839 27.4876C42.6367 27.7693 42.548 28.0778 42.5232 28.3945C42.4984 28.7113 42.5381 29.0296 42.6398 29.3304C42.7414 29.6312 42.9031 29.9082 43.1148 30.1447L44.2776 31.4426C44.4877 31.6751 44.7423 31.8632 45.0263 31.9958C45.3103 32.1284 45.6181 32.2028 45.9315 32.2146C46.2449 32.2265 46.5576 32.1756 46.8512 32.0649C47.1448 31.9542 47.4134 31.7859 47.6411 31.57V31.57Z" fill="black"/>
<path opacity="0.2" d="M37.0602 41.0492L25.082 51.1906C24.6145 51.5863 24.0115 51.7844 23.4009 51.7429C22.7903 51.7015 22.2203 51.4237 21.8119 50.9685L21.4157 50.5262C21.012 50.0755 20.798 49.4862 20.8182 48.881C20.8384 48.2758 21.0913 47.7014 21.5242 47.2773L32.7413 36.2864C32.9684 36.0639 33.2381 35.8896 33.5343 35.7741C33.8304 35.6586 34.1468 35.6043 34.4643 35.6143C34.7818 35.6244 35.0939 35.6987 35.3818 35.8327C35.6696 35.9667 35.9273 36.1577 36.1391 36.3941L37.3019 37.692C37.51 37.9263 37.6691 38.1999 37.7698 38.4968C37.8705 38.7936 37.9107 39.1076 37.8882 39.4205C37.8657 39.7333 37.7808 40.0385 37.6386 40.3182C37.4964 40.5979 37.2997 40.8465 37.0602 41.0492V41.0492Z" fill="#0D262B"/>
<path opacity="0.2" d="M47.6411 31.57L59.0333 20.7745C59.4777 20.3531 59.7407 19.7754 59.7664 19.1639C59.792 18.5525 59.5783 17.9555 59.1706 17.4997L58.7744 17.0574C58.3706 16.6068 57.8083 16.3296 57.2045 16.2834C56.6007 16.2372 56.0021 16.4256 55.5331 16.8095L43.3799 26.7555C43.1339 26.9568 42.9311 27.2059 42.7839 27.4876C42.6367 27.7693 42.548 28.0778 42.5232 28.3945C42.4984 28.7113 42.5381 29.0296 42.6398 29.3304C42.7414 29.6312 42.9031 29.9082 43.1148 30.1447L44.2776 31.4426C44.4877 31.6751 44.7423 31.8632 45.0263 31.9958C45.3103 32.1284 45.6181 32.2028 45.9315 32.2146C46.2449 32.2265 46.5576 32.1756 46.8512 32.0649C47.1448 31.9542 47.4134 31.7859 47.6411 31.57V31.57Z" fill="#0D262B"/>
<path d="M18.1909 48.8582L17.476 49.4987C16.4281 50.4375 16.3385 52.0467 17.2759 53.093L18.3723 54.3169C19.3097 55.3632 20.9191 55.4504 21.967 54.5116L22.6818 53.8711C23.7297 52.9323 23.8193 51.3231 22.882 50.2768L21.7855 49.0529C20.8482 48.0066 19.2388 47.9195 18.1909 48.8582Z" fill="black"/>
<path d="M58.271 12.9514L57.5561 13.5918C56.5082 14.5306 56.4186 16.1398 57.3559 17.1861L58.4524 18.4101C59.3898 19.4564 60.9991 19.5435 62.047 18.6047L62.7619 17.9643C63.8098 17.0255 63.8994 15.4163 62.9621 14.37L61.8656 13.1461C60.9282 12.0998 59.3189 12.0126 58.271 12.9514Z" fill="black"/>
<path d="M17.6751 47.3292L16.097 48.7429C15.7807 49.0263 15.7537 49.5121 16.0366 49.8279L16.2301 50.0439C16.513 50.3597 16.9988 50.386 17.3151 50.1026L18.8932 48.6889C19.2095 48.4055 19.2365 47.9197 18.9536 47.6039L18.7601 47.3879C18.4772 47.0721 17.9914 47.0458 17.6751 47.3292Z" fill="black"/>
<path d="M14.9058 45.6722L14.5823 45.9619C14.1079 46.387 14.0673 47.1156 14.4917 47.5893L15.695 48.9325C16.1194 49.4063 16.8481 49.4457 17.3226 49.0207L17.646 48.7309C18.1205 48.3059 18.1611 47.5772 17.7367 47.1035L16.5333 45.7603C16.1089 45.2866 15.3802 45.2471 14.9058 45.6722Z" fill="black"/>
<path d="M11.5256 52.8384C14.6738 50.0179 16.9191 47.3889 16.5405 46.9663C16.1619 46.5437 13.3028 48.4875 10.1545 51.308C7.00627 54.1284 4.76102 56.7575 5.13963 57.1801C5.51824 57.6027 8.37733 55.6588 11.5256 52.8384Z" fill="black"/>
<path d="M22.0777 43.385C25.2259 40.5646 27.4712 37.9356 27.0926 37.513C26.7139 37.0903 23.8549 39.0342 20.7066 41.8546C17.5584 44.6751 15.3131 47.3041 15.6917 47.7267C16.0703 48.1493 18.9294 46.2055 22.0777 43.385Z" fill="black"/>
<path d="M57.8417 11.3448L56.2637 12.7586C55.9474 13.0419 55.9203 13.5277 56.2033 13.8435L56.3967 14.0595C56.6797 14.3753 57.1655 14.4016 57.4818 14.1182L59.0598 12.7045C59.3761 12.4211 59.4032 11.9354 59.1202 11.6195L58.9267 11.4036C58.6438 11.0877 58.158 11.0614 57.8417 11.3448Z" fill="black"/>
<path d="M55.0724 9.68777L54.749 9.97753C54.2745 10.4026 54.2339 11.1312 54.6583 11.6049L55.8617 12.9481C56.2861 13.4219 57.0148 13.4613 57.4892 13.0363L57.8127 12.7465C58.2871 12.3215 58.3277 11.5928 57.9033 11.1191L56.6999 9.7759C56.2755 9.30217 55.5469 9.26271 55.0724 9.68777Z" fill="black"/>
<path d="M51.6902 16.8558C54.8385 14.0354 57.0837 11.4063 56.7051 10.9837C56.3265 10.5611 53.4674 12.505 50.3192 15.3254C47.1709 18.1459 44.9257 20.7749 45.3043 21.1975C45.6829 21.6201 48.542 19.6763 51.6902 16.8558Z" fill="black"/>
<path d="M62.2423 7.40248C65.3905 4.58203 67.6358 1.95301 67.2572 1.53041C66.8785 1.1078 64.0195 3.05163 60.8712 5.87208C57.723 8.69253 55.4777 11.3216 55.8563 11.7442C56.2349 12.1668 59.094 10.2229 62.2423 7.40248Z" fill="black"/>
<path opacity="0.2" d="M11.5256 52.8384C14.6738 50.0179 16.9191 47.3889 16.5405 46.9663C16.1619 46.5437 13.3028 48.4875 10.1545 51.308C7.00627 54.1284 4.76102 56.7575 5.13963 57.1801C5.51824 57.6027 8.37733 55.6588 11.5256 52.8384Z" fill="#0D262B"/>
<path opacity="0.2" d="M22.0777 43.385C25.2259 40.5646 27.4712 37.9356 27.0926 37.513C26.7139 37.0903 23.8549 39.0342 20.7066 41.8546C17.5584 44.6751 15.3131 47.3041 15.6917 47.7267C16.0703 48.1493 18.9294 46.2055 22.0777 43.385Z" fill="#0D262B"/>
<path opacity="0.2" d="M51.6902 16.8558C54.8385 14.0354 57.0837 11.4063 56.7051 10.9837C56.3265 10.5611 53.4674 12.505 50.3192 15.3254C47.1709 18.1459 44.9257 20.7749 45.3043 21.1975C45.6829 21.6201 48.542 19.6763 51.6902 16.8558Z" fill="#0D262B"/>
<path opacity="0.2" d="M62.2423 7.40248C65.3905 4.58203 67.6358 1.95301 67.2572 1.53041C66.8785 1.1078 64.0195 3.05163 60.8712 5.87208C57.723 8.69253 55.4777 11.3216 55.8563 11.7442C56.2349 12.1668 59.094 10.2229 62.2423 7.40248Z" fill="#0D262B"/>
<path d="M44.9264 34.5545L40.4106 38.6002C39.778 39.1669 39.7239 40.1384 40.2897 40.77L40.6767 41.202C41.2426 41.8336 42.2142 41.8862 42.8468 41.3195L47.3626 37.2739C47.9952 36.7071 48.0493 35.7356 47.4834 35.104L47.0965 34.672C46.5306 34.0404 45.559 33.9878 44.9264 34.5545Z" fill="black"/>
<path opacity="0.2" d="M44.9264 34.5545L40.4106 38.6002C39.778 39.1669 39.7239 40.1384 40.2897 40.77L40.6767 41.202C41.2426 41.8336 42.2142 41.8862 42.8468 41.3195L47.3626 37.2739C47.9952 36.7071 48.0493 35.7356 47.4834 35.104L47.0965 34.672C46.5306 34.0404 45.559 33.9878 44.9264 34.5545Z" fill="#0D262B"/>
<path d="M44.3662 33.4194C42.8801 32.6019 41.39 31.7925 39.9 30.9822C39.6847 30.8657 39.493 30.8867 39.3077 31.0589C38.8909 31.4465 38.4652 31.8253 38.036 32.1991C37.8464 32.3646 37.8143 32.5502 37.9091 32.7808C38.5482 34.3393 39.1816 35.8993 39.824 37.4567C39.9907 37.8614 40.2927 37.9277 40.6182 37.6431C40.999 37.3109 41.3713 36.9703 41.7476 36.6332C41.8605 36.532 41.9812 36.4336 41.9258 36.2509C41.8755 36.0816 41.7255 36.067 41.5894 36.032C41.0727 35.9001 40.6148 35.6579 40.2211 35.289C40.0458 35.1243 40.0454 34.973 40.2156 34.8197C40.4546 34.6038 40.6957 34.3895 40.9356 34.1747C40.9351 34.1742 40.9347 34.1737 40.9347 34.1737C41.1668 33.9657 41.3959 33.7543 41.6315 33.5512C41.8849 33.3322 42.0152 33.352 42.2087 33.6414C42.4936 34.0678 42.6678 34.5349 42.741 35.0402C42.7941 35.4031 43.0058 35.4944 43.2708 35.2641C43.6768 34.9127 44.0781 34.5551 44.4696 34.1875C44.7527 33.9214 44.7127 33.6098 44.3662 33.4194ZM40.2169 32.7894C40.2277 33.0315 40.2641 33.256 40.3871 33.4755C40.5021 33.6801 40.3998 33.7788 40.179 33.7692C39.7941 33.7515 39.437 33.4013 39.3968 32.9754C39.3744 32.7367 39.3513 32.5117 39.2191 32.2925C39.1135 32.1167 39.2146 32.0004 39.4195 32.0154C39.6438 32.0308 39.8391 32.1191 40.0041 32.3081C40.1318 32.4304 40.2094 32.602 40.2169 32.7894Z" fill="white"/>
<defs>
<filter id="filter0_d" x="0.191101" y="149.955" width="111.96" height="154.045" filterUnits="userSpaceOnUse" color-interpolation-filters="sRGB">
<feFlood flood-opacity="0" result="BackgroundImageFix"/>
<feColorMatrix in="SourceAlpha" type="matrix" values="0 0 0 0 0 0 0 0 0 0 0 0 0 0 0 0 0 0 127 0"/>
<feOffset dx="6" dy="6"/>
<feGaussianBlur stdDeviation="4"/>
<feColorMatrix type="matrix" values="0 0 0 0 0 0 0 0 0 0 0 0 0 0 0 0 0 0 0.25 0"/>
<feBlend mode="normal" in2="BackgroundImageFix" result="effect1_dropShadow"/>
<feBlend mode="normal" in="SourceGraphic" in2="effect1_dropShadow" result="shape"/>
</filter>
</defs>
</svg>
