<svg width="218" height="80" viewBox="0 0 218 80" fill="none" xmlns="http://www.w3.org/2000/svg">
<g filter="url(#filter0_d)">
<path d="M158.15 47.525C158.15 59.7083 107.762 62.5789 89.6227 58.0371C69.4678 72.96 18.4085 54.662 47.2973 47.5249C47.2973 35.3416 88.2791 44.7054 104.403 47.525C123.214 57.0331 158.15 35.3416 158.15 47.525Z" fill="url(#paint0_linear)"/>
<path d="M94.4541 65.1182C94.5218 67.2556 89.4248 71.8633 87.8886 71.9119C86.3524 71.9606 85.0522 70.2673 84.9845 68.1299C84.9168 65.9925 86.1073 64.2203 87.6435 64.1716C89.1797 64.123 94.3864 62.9808 94.4541 65.1182Z" fill="#533627" fill-opacity="0.62"/>
<path d="M42.8324 43.3635C41.6586 45.1511 31.9188 44.072 29.7776 42.6659C27.6363 41.2599 26.852 38.671 28.0258 36.8834C29.1996 35.0959 31.887 34.7866 34.0282 36.1926C36.1695 37.5987 44.0062 41.576 42.8324 43.3635Z" fill="#45332A"/>
<path d="M65.6741 62.4304C66.4253 61.9213 66.1647 60.7555 65.2683 60.6147L10.4629 52.0069C9.56649 51.8661 8.96104 52.8959 9.51996 53.6107L14.9038 60.4963C15.0599 60.6959 15.286 60.8289 15.5364 60.8682L57.7225 67.494C57.9729 67.5334 58.2289 67.4761 58.4387 67.3339L65.6741 62.4304Z" fill="white"/>
<path d="M73.5924 53.4324C73.7938 52.8443 73.4156 52.2169 72.8015 52.1205L5.96604 41.6232C5.32924 41.5232 4.76556 42.0429 4.81366 42.6857L5.27111 48.7975C5.30577 49.2605 5.65451 49.6387 6.11317 49.7108L70.5279 59.8279C71.0074 59.9032 71.4718 59.6232 71.6291 59.164L73.5924 53.4324Z" fill="white"/>
<rect x="69.0997" y="62.8294" width="63.7345" height="4.78009" rx="1" transform="rotate(-171.074 69.0997 62.8294)" fill="white"/>
<path d="M128.979 63.6194C128.389 63.6809 127.876 63.2181 127.876 62.6248L127.876 1.10976C127.876 0.516422 128.389 0.0535851 128.979 0.115154L213.021 8.88319C213.53 8.93633 213.917 9.36568 213.917 9.87779V53.8567C213.917 54.3688 213.53 54.7982 213.021 54.8513L128.979 63.6194Z" fill="#E1E1E1"/>
<circle r="12.5" transform="matrix(0 1 1 0 163.529 31.2638)" fill="#0E927D"/>
<path d="M168.697 38.6601C165.007 37.2952 161.326 35.9099 157.642 34.5262C157.111 34.3254 156.852 33.9441 156.863 33.3291C156.887 31.9454 156.883 30.5601 156.864 29.1764C156.857 28.5645 157.126 28.2053 157.668 28.0029C161.327 26.6317 164.98 25.248 168.642 23.8846C169.593 23.5301 170.172 23.9694 170.184 25.0205C170.199 26.2489 170.187 27.4757 170.187 28.7042C170.187 29.0728 170.204 29.4509 169.805 29.647C169.437 29.8306 169.181 29.5827 168.912 29.3929C167.89 28.6712 166.77 28.2351 165.531 28.1205C164.979 28.0703 164.718 28.3151 164.717 28.872C164.714 29.6549 164.717 30.4393 164.717 31.2222C164.715 31.2222 164.714 31.2222 164.714 31.2222C164.714 31.9799 164.703 32.7377 164.717 33.4939C164.73 34.3081 164.965 34.5121 165.759 34.3928C166.93 34.2171 168 33.7747 168.98 33.0875C169.685 32.5949 170.167 32.8303 170.179 33.6837C170.201 34.989 170.204 36.2959 170.175 37.6011C170.154 38.5456 169.557 38.9786 168.697 38.6601ZM161.233 32.1682C161.665 31.7948 162.106 31.4967 162.673 31.3634C163.201 31.2394 163.213 30.8943 162.857 30.5099C162.234 29.8416 161.084 29.7631 160.291 30.3813C159.846 30.728 159.425 31.0512 158.845 31.1673C158.38 31.2614 158.336 31.6332 158.677 31.9799C159.049 32.3612 159.501 32.5714 160.079 32.5635C160.485 32.5965 160.899 32.4584 161.233 32.1682Z" fill="#F3E4E1"/>
</g>
<defs>
<filter id="filter0_d" x="0.810791" y="0.10965" width="217.107" height="79.8033" filterUnits="userSpaceOnUse" color-interpolation-filters="sRGB">
<feFlood flood-opacity="0" result="BackgroundImageFix"/>
<feColorMatrix in="SourceAlpha" type="matrix" values="0 0 0 0 0 0 0 0 0 0 0 0 0 0 0 0 0 0 127 0"/>
<feOffset dy="4"/>
<feGaussianBlur stdDeviation="2"/>
<feColorMatrix type="matrix" values="0 0 0 0 0 0 0 0 0 0 0 0 0 0 0 0 0 0 0.25 0"/>
<feBlend mode="normal" in2="BackgroundImageFix" result="effect1_dropShadow"/>
<feBlend mode="normal" in="SourceGraphic" in2="effect1_dropShadow" result="shape"/>
</filter>
<linearGradient id="paint0_linear" x1="98" y1="46" x2="98.3985" y2="63.7345" gradientUnits="userSpaceOnUse">
<stop stop-color="#45332A"/>
<stop offset="1" stop-color="#533627" stop-opacity="0.42"/>
</linearGradient>
</defs>
</svg>
